<svg width="18" height="17" viewBox="0 0 18 17" fill="none" xmlns="http://www.w3.org/2000/svg">
<path fill-rule="evenodd" clip-rule="evenodd" d="M5.65035 0.578735C6.52033 0.538685 6.79771 0.529785 9.01381 0.529785C11.2299 0.529785 11.5073 0.539427 12.3765 0.578735C13.2458 0.618044 13.8391 0.756735 14.3583 0.957727C14.9019 1.16317 15.3951 1.48431 15.803 1.89965C16.2184 2.30682 16.5388 2.79929 16.7435 3.34367C16.9452 3.86284 17.0832 4.45617 17.1232 5.32392C17.1633 6.19538 17.1722 6.47277 17.1722 8.68813C17.1722 10.9042 17.1625 11.1816 17.1232 12.0516C17.0839 12.9193 16.9452 13.5127 16.7435 14.0318C16.5388 14.5763 16.2178 15.0696 15.803 15.4774C15.3951 15.8927 14.9019 16.2131 14.3583 16.4178C13.8391 16.6195 13.2458 16.7575 12.378 16.7975C11.5073 16.8376 11.2299 16.8465 9.01381 16.8465C6.79771 16.8465 6.52033 16.8368 5.65035 16.7975C4.7826 16.7582 4.18926 16.6195 3.6701 16.4178C3.12565 16.2131 2.63237 15.8921 2.22459 15.4774C1.80954 15.0699 1.48834 14.5769 1.28341 14.0326C1.08242 13.5134 0.944469 12.9201 0.904419 12.0523C0.864369 11.1809 0.855469 10.9035 0.855469 8.68813C0.855469 6.47203 0.86511 6.19464 0.904419 5.32541C0.943727 4.45617 1.08242 3.86284 1.28341 3.34367C1.48865 2.79935 1.81008 2.30631 2.22533 1.8989C2.63253 1.48394 3.12532 1.16276 3.66936 0.957727C4.18852 0.756735 4.78186 0.618785 5.64961 0.578735H5.65035ZM12.3105 2.04724C11.4502 2.00793 11.1921 1.99977 9.01381 1.99977C6.83553 1.99977 6.57743 2.00793 5.7171 2.04724C4.92129 2.08358 4.48964 2.21634 4.20187 2.32833C3.8214 2.47666 3.54921 2.65244 3.26366 2.93798C2.99299 3.20131 2.78468 3.52188 2.65401 3.87619C2.54202 4.16396 2.40926 4.59561 2.37292 5.39142C2.33361 6.25175 2.32545 6.50985 2.32545 8.68813C2.32545 10.8664 2.33361 11.1245 2.37292 11.9848C2.40926 12.7807 2.54202 13.2123 2.65401 13.5001C2.78455 13.8538 2.99295 14.175 3.26366 14.4383C3.52696 14.709 3.8481 14.9174 4.20187 15.0479C4.48964 15.1599 4.92129 15.2927 5.7171 15.329C6.57743 15.3683 6.83479 15.3765 9.01381 15.3765C11.1928 15.3765 11.4502 15.3683 12.3105 15.329C13.1063 15.2927 13.538 15.1599 13.8258 15.0479C14.2062 14.8996 14.4784 14.7238 14.764 14.4383C15.0347 14.175 15.2431 13.8538 15.3736 13.5001C15.4856 13.2123 15.6184 12.7807 15.6547 11.9848C15.694 11.1245 15.7022 10.8664 15.7022 8.68813C15.7022 6.50985 15.694 6.25175 15.6547 5.39142C15.6184 4.59561 15.4856 4.16396 15.3736 3.87619C15.2253 3.49571 15.0495 3.22352 14.764 2.93798C14.5006 2.66732 14.18 2.45902 13.8258 2.32833C13.538 2.21634 13.1063 2.08358 12.3105 2.04724ZM7.97177 11.2031C8.55373 11.4454 9.20173 11.4781 9.80512 11.2956C10.4085 11.1132 10.9298 10.7269 11.2801 10.2028C11.6303 9.67868 11.7877 9.04922 11.7254 8.42195C11.6631 7.79467 11.3849 7.20848 10.9384 6.7635C10.6538 6.47905 10.3097 6.26125 9.93076 6.12578C9.55186 5.9903 9.14763 5.94052 8.74718 5.98002C8.34673 6.01951 7.96002 6.14731 7.61488 6.3542C7.26975 6.56109 6.97478 6.84193 6.75121 7.1765C6.52764 7.51107 6.38103 7.89105 6.32194 8.28908C6.26285 8.68711 6.29275 9.0933 6.40948 9.47839C6.52621 9.86348 6.72687 10.2179 6.99701 10.5161C7.26716 10.8144 7.60006 11.049 7.97177 11.2031ZM6.04862 5.72294C6.43802 5.33355 6.9003 5.02466 7.40906 4.81393C7.91783 4.60319 8.46313 4.49472 9.01381 4.49472C9.5645 4.49472 10.1098 4.60319 10.6186 4.81392C11.1273 5.02466 11.5896 5.33355 11.979 5.72294C12.3684 6.11234 12.6773 6.57461 12.888 7.08338C13.0988 7.59215 13.2072 8.13744 13.2072 8.68813C13.2072 9.23881 13.0988 9.78411 12.888 10.2929C12.6773 10.8016 12.3684 11.2639 11.979 11.6533C11.1926 12.4397 10.126 12.8815 9.01381 12.8815C7.90165 12.8815 6.83504 12.4397 6.04862 11.6533C5.26221 10.8669 4.8204 9.80029 4.8204 8.68813C4.8204 7.57597 5.26221 6.50936 6.04862 5.72294ZM14.1373 5.11922C14.2337 5.0282 14.311 4.91874 14.3644 4.79732C14.4179 4.6759 14.4464 4.545 14.4483 4.41236C14.4503 4.27972 14.4256 4.14805 14.3757 4.02512C14.3258 3.9022 14.2518 3.79053 14.158 3.69673C14.0642 3.60293 13.9525 3.52891 13.8296 3.47904C13.7067 3.42917 13.575 3.40447 13.4424 3.4064C13.3097 3.40834 13.1788 3.43687 13.0574 3.4903C12.936 3.54373 12.8265 3.62098 12.7355 3.71747C12.5585 3.90514 12.4616 4.1544 12.4653 4.41236C12.4691 4.67032 12.5732 4.91666 12.7556 5.09908C12.9381 5.28151 13.1844 5.38565 13.4424 5.38941C13.7003 5.39317 13.9496 5.29625 14.1373 5.11922Z" fill="white"/>
</svg>
