<svg width="19" height="16" viewBox="0 0 19 16" fill="none" xmlns="http://www.w3.org/2000/svg">
<path d="M0.0119019 4.68675V12.2771C0.0119019 13.0885 0.334228 13.8666 0.907973 14.4404C1.48172 15.0141 2.25988 15.3364 3.07128 15.3364H15.3088C16.1202 15.3364 16.8984 15.0141 17.4721 14.4404C18.0458 13.8666 18.3682 13.0885 18.3682 12.2771V3.09893C18.3682 2.28753 18.0458 1.50937 17.4721 0.935622C16.8984 0.361877 16.1202 0.0395508 15.3088 0.0395508H3.07128C2.25988 0.0395508 1.48172 0.361877 0.907973 0.935622C0.334228 1.50937 0.0119019 2.28753 0.0119019 3.09893V4.68675ZM3.07128 1.56924H15.3088C15.7145 1.56924 16.1036 1.7304 16.3904 2.01728C16.6773 2.30415 16.8385 2.69323 16.8385 3.09893V4.2309L9.19004 8.34882L1.54159 4.2309V3.09893C1.54159 2.69323 1.70275 2.30415 1.98963 2.01728C2.2765 1.7304 2.66558 1.56924 3.07128 1.56924ZM1.54159 5.96863L8.8275 9.89075C8.93893 9.95073 9.06349 9.98213 9.19004 9.98213C9.31658 9.98213 9.44115 9.95073 9.55258 9.89075L16.8385 5.96863V12.2771C16.8385 12.6828 16.6773 13.0718 16.3904 13.3587C16.1036 13.6456 15.7145 13.8068 15.3088 13.8068H3.07128C2.66558 13.8068 2.2765 13.6456 1.98963 13.3587C1.70275 13.0718 1.54159 12.6828 1.54159 12.2771V5.96863Z" fill="white"/>
</svg>
