<svg width="16" height="16" viewBox="0 0 16 16" fill="none" xmlns="http://www.w3.org/2000/svg">
<path d="M14.6508 14.0089L10.0541 9.41219C10.7674 8.49003 11.1533 7.36254 11.1533 6.17665C11.1533 4.75711 10.5993 3.42608 9.59746 2.42249C8.59564 1.41891 7.26107 0.866669 5.8433 0.866669C4.42554 0.866669 3.09096 1.42068 2.08915 2.42249C1.08556 3.42431 0.533325 4.75711 0.533325 6.17665C0.533325 7.59441 1.08733 8.92898 2.08915 9.9308C3.09096 10.9344 4.42377 11.4866 5.8433 11.4866C7.0292 11.4866 8.15491 11.1008 9.07708 10.3892L13.6737 14.9841C13.6872 14.9976 13.7032 15.0083 13.7208 15.0156C13.7385 15.0229 13.7573 15.0267 13.7764 15.0267C13.7955 15.0267 13.8144 15.0229 13.832 15.0156C13.8496 15.0083 13.8656 14.9976 13.8791 14.9841L14.6508 14.2142C14.6643 14.2007 14.675 14.1847 14.6823 14.1671C14.6896 14.1495 14.6933 14.1306 14.6933 14.1115C14.6933 14.0925 14.6896 14.0736 14.6823 14.056C14.675 14.0383 14.6643 14.0223 14.6508 14.0089ZM8.64697 8.98031C7.89649 9.72902 6.90176 10.1414 5.8433 10.1414C4.78485 10.1414 3.79011 9.72902 3.03963 8.98031C2.29093 8.22984 1.87852 7.2351 1.87852 6.17665C1.87852 5.11819 2.29093 4.12168 3.03963 3.37298C3.79011 2.62427 4.78485 2.21186 5.8433 2.21186C6.90176 2.21186 7.89826 2.6225 8.64697 3.37298C9.39568 4.12345 9.80809 5.11819 9.80809 6.17665C9.80809 7.2351 9.39568 8.23161 8.64697 8.98031Z" fill="#C8C8C8" stroke="#2E3D45" stroke-width="0.786667"/>
</svg>
